<svg width="20" height="20" viewBox="0 0 20 20" fill="none" xmlns="http://www.w3.org/2000/svg">
  <path d="M16.6667 0H3.33334C1.49223 0 0 1.49234 0 3.33358V16.6664C0 18.5077 1.49223 20 3.33186 20H16.6652C18.5063 20 20 18.5091 20 16.6679V3.33358C20 1.49234 18.5078 0 16.6667 0ZM4.49722 16.3131L2.9742 14.919C2.86866 14.8208 2.86134 14.6551 2.95954 14.5481L6.2958 10.9008C6.38522 10.8041 6.38816 10.656 6.30314 10.5549L3.18382 6.84746C3.09146 6.73605 3.10466 6.57186 3.21606 6.47805L4.79332 5.14842C4.90472 5.05607 5.0689 5.06927 5.1627 5.18068L9.74202 10.6282C9.82704 10.7293 9.8241 10.8774 9.73468 10.9756L4.8666 16.2999C4.7684 16.404 4.60422 16.4113 4.49868 16.3146L4.49722 16.3131ZM17.1196 16.2281C17.1196 16.3732 17.0023 16.4905 16.8572 16.4905H9.78452C9.6394 16.4905 9.52214 16.3732 9.52214 16.2281V14.2842C9.52214 14.1391 9.6394 14.0218 9.78452 14.0218H16.8572C17.0023 14.0218 17.1196 14.1391 17.1196 14.2842V16.2281Z" fill="#DDDDDD"/>
</svg>
