<svg width="20" height="20" viewBox="0 0 20 20" fill="none" xmlns="http://www.w3.org/2000/svg">
  <path fill-rule="evenodd" clip-rule="evenodd" d="M2.37167 7.2749C2.39667 7.02635 2.3025 6.78118 2.11917 6.61436L0.2525 4.33954V4H6.05083L10.5325 13.9376L14.4725 4H20V4.33954L18.4033 5.88726C18.2658 5.99341 18.1975 6.16782 18.2258 6.34053V17.7129C18.1975 17.8848 18.2658 18.0592 18.4033 18.1654L19.9625 19.7131V20.0526H12.1192V19.7131L13.735 18.1275C13.8933 17.9674 13.8933 17.9202 13.8933 17.675V8.48308L9.4025 20.0156H8.79583L3.56667 8.48308V16.2124C3.52333 16.5368 3.63 16.8645 3.85583 17.0987L5.95667 19.6752V20.0156H0V19.6752L2.10083 17.0987C2.32583 16.8637 2.42583 16.5342 2.37167 16.2124V7.2749Z" fill="#DDDDDD"/>
</svg>
