<svg width="20" height="20" viewBox="0 0 20 20" fill="none" xmlns="http://www.w3.org/2000/svg">
  <path d="M20 5.93007C19.2645 6.24734 18.4641 6.47567 17.6397 6.56461C18.4956 6.0561 19.1366 5.25274 19.4424 4.30526C18.6392 4.78306 17.7593 5.11811 16.8417 5.29553C16.4582 4.88554 15.9944 4.55893 15.4792 4.33605C14.9639 4.11316 14.4083 3.99877 13.8469 4.00001C11.5755 4.00001 9.74883 5.84114 9.74883 8.10048C9.74883 8.41775 9.78729 8.73502 9.84978 9.04027C6.44874 8.86241 3.41546 7.2376 1.39887 4.74992C1.03143 5.37753 0.838874 6.09213 0.841245 6.81938C0.841245 8.24229 1.56472 9.49695 2.66795 10.2348C2.0178 10.2092 1.38287 10.0305 0.814806 9.71327V9.76374C0.814806 11.7563 2.22329 13.4075 4.10047 13.7873C3.74801 13.8788 3.38543 13.9257 3.02127 13.9267C2.75448 13.9267 2.5021 13.9003 2.24733 13.8642C2.76649 15.489 4.27833 16.6692 6.0786 16.7076C4.67011 17.8108 2.9059 18.4598 0.990266 18.4598C0.646557 18.4598 0.329287 18.4478 0 18.4093C1.81709 19.5751 3.97308 20.2481 6.29492 20.2481C13.8325 20.2481 17.957 14.0036 17.957 8.58359C17.957 8.40573 17.957 8.22787 17.945 8.05C18.7429 7.46594 19.4424 6.74247 20 5.93007Z" fill="#DDDDDD"/>
</svg>
